<svg width="994" height="859" viewBox="0 0 994 859" fill="none" xmlns="http://www.w3.org/2000/svg">
<path opacity="0.1" d="M970.243 583.466C969.364 584.196 968.556 584.905 967.695 585.594C964.518 588.149 961.192 590.456 957.74 592.498C939.658 603.338 917.368 608.634 895.657 612.23C846.964 620.303 797.252 621.872 747.751 623.41C613.999 627.587 479.922 631.753 346.495 622.132C293.778 618.335 239.901 611.981 192.131 592.498C185.283 589.714 178.571 586.643 171.993 583.286C158.682 576.482 145.898 568.2 135.266 558.309C125.277 549.037 117.176 538.387 112.335 526.277C102.239 501.06 107.581 472.735 119.109 448.018C123.896 438.018 129.295 428.413 135.266 419.273C144.167 405.356 153.981 391.838 162.934 377.93C194.793 328.495 215.581 265.951 186.174 215.246C177.721 200.679 165.508 187.89 158.62 172.684C149.834 153.231 150.51 131.631 153.304 110.65C153.668 107.985 154.051 105.348 154.455 102.737C159.226 71.6246 168.206 38.1046 195.891 18.682C224.648 -1.49997 265.486 -0.480885 301.176 6.69269C356.678 17.9626 407.875 41.4216 459.617 62.6026C511.359 83.7837 565.49 103.136 622.354 105.214C672.567 107.053 731.136 93.2951 764.462 57.5372C796.83 22.8083 857.675 20.1606 901.526 41.1418C931.628 55.5389 954.085 81.4757 963.557 110.65C965.475 116.507 966.856 122.574 967.678 128.753C968.437 134.401 968.684 140.123 968.416 145.828C968.284 148.646 968.029 151.433 967.678 154.191C960.35 211.759 907.606 257.168 875.546 308.592C859.88 333.71 848.818 363.883 859.59 390.969C876.02 432.242 933.157 446.918 967.66 477.631C974.153 483.221 979.869 489.889 984.617 497.413C1001.35 524.749 995.178 561.666 970.243 583.466Z" fill="#5563F5"/>
<path d="M257.99 325.86C257.99 325.86 211.99 244.34 142.67 220.86C113.58 211 88.19 192.46 70.83 167.12C62.6114 155.089 55.5149 142.329 49.63 129" stroke="#535461" stroke-width="2" stroke-miterlimit="10"/>
<path d="M6.04001 113.91C13.94 121.54 50.72 129.54 50.72 129.54C50.72 129.54 41.72 93.0199 33.8 85.3499C29.9929 81.7448 24.9185 79.7852 19.6765 79.8957C14.4345 80.0062 9.44723 82.1779 5.79542 85.9402C2.1436 89.7025 0.121481 94.7523 0.167265 99.9953C0.213048 105.238 2.32305 110.252 6.04001 113.95V113.91Z" fill="#5563F5"/>
<path d="M26.85 180C37.64 182.14 72.85 168.81 72.85 168.81C72.85 168.81 45.4 143.05 34.6 140.91C29.4671 140.006 24.1844 141.149 19.8841 144.093C15.5837 147.038 12.6078 151.55 11.5943 156.662C10.5807 161.774 11.6101 167.08 14.4618 171.443C17.3135 175.805 21.7606 178.877 26.85 180V180Z" fill="#5563F5"/>
<path d="M102.6 251.54C113 247.94 136.6 218.67 136.6 218.67C136.6 218.67 99.92 210.28 89.53 213.88C86.9806 214.672 84.6164 215.968 82.5775 217.691C80.5387 219.414 78.8668 221.53 77.6611 223.911C76.4555 226.293 75.7406 228.893 75.5589 231.556C75.3772 234.22 75.7325 236.892 76.6035 239.416C77.4746 241.939 78.8438 244.262 80.6297 246.246C82.4157 248.23 84.582 249.835 87.0002 250.966C89.4184 252.097 92.0392 252.73 94.7069 252.829C97.3746 252.928 100.035 252.489 102.53 251.54H102.6Z" fill="#5563F5"/>
<path d="M172.1 292.73C182.96 290.93 211.2 266.08 211.2 266.08C211.2 266.08 176.47 251.61 165.61 253.4C160.394 254.261 155.735 257.158 152.655 261.454C149.576 265.751 148.329 271.094 149.19 276.31C150.051 281.525 152.948 286.185 157.244 289.265C161.541 292.344 166.884 293.591 172.1 292.73V292.73Z" fill="#5563F5"/>
<path d="M103.49 140.27C103.49 151.27 83.59 183.2 83.59 183.2C83.59 183.2 63.65 151.29 63.64 140.29C63.5805 137.636 64.052 134.997 65.0266 132.527C66.0012 130.058 67.4593 127.808 69.3154 125.91C71.1715 124.012 73.3881 122.503 75.8351 121.474C78.2821 120.444 80.9102 119.914 83.565 119.914C86.2198 119.914 88.8479 120.444 91.2949 121.474C93.7419 122.503 95.9585 124.012 97.8146 125.91C99.6707 127.808 101.129 130.058 102.103 132.527C103.078 134.997 103.549 137.636 103.49 140.29V140.27Z" fill="#5563F5"/>
<path d="M184.17 189.54C180.88 200.04 152.33 224.54 152.33 224.54C152.33 224.54 142.85 188.09 146.1 177.54C147.847 172.709 151.391 168.74 155.994 166.459C160.596 164.179 165.901 163.763 170.803 165.3C175.704 166.836 179.823 170.205 182.301 174.705C184.778 179.204 185.423 184.487 184.1 189.45L184.17 189.54Z" fill="#5563F5"/>
<path d="M256.01 248.09C254.55 259 230.55 287.97 230.55 287.97C230.55 287.97 215.05 253.69 216.55 242.78C217.327 237.605 220.107 232.943 224.292 229.801C228.476 226.659 233.728 225.288 238.915 225.985C244.101 226.683 248.805 229.392 252.011 233.527C255.217 237.663 256.668 242.894 256.05 248.09H256.01Z" fill="#5563F5"/>
<path opacity="0.25" d="M6.04001 113.91C13.94 121.54 50.72 129.54 50.72 129.54C50.72 129.54 41.72 93.0199 33.8 85.3499C29.9929 81.7448 24.9185 79.7852 19.6765 79.8957C14.4345 80.0062 9.44723 82.1779 5.79542 85.9402C2.1436 89.7025 0.121481 94.7523 0.167265 99.9953C0.213048 105.238 2.32305 110.252 6.04001 113.95V113.91Z" fill="black"/>
<path opacity="0.25" d="M26.85 180C37.64 182.14 72.85 168.81 72.85 168.81C72.85 168.81 45.4 143.05 34.6 140.91C29.4671 140.006 24.1844 141.149 19.8841 144.093C15.5837 147.038 12.6078 151.55 11.5943 156.662C10.5807 161.774 11.6101 167.08 14.4618 171.443C17.3135 175.805 21.7606 178.877 26.85 180V180Z" fill="black"/>
<path opacity="0.25" d="M102.6 251.54C113 247.94 136.6 218.67 136.6 218.67C136.6 218.67 99.92 210.28 89.53 213.88C86.9806 214.672 84.6164 215.968 82.5775 217.691C80.5387 219.414 78.8668 221.53 77.6611 223.911C76.4555 226.293 75.7406 228.893 75.5589 231.556C75.3772 234.22 75.7325 236.892 76.6035 239.416C77.4746 241.939 78.8438 244.262 80.6297 246.246C82.4157 248.23 84.582 249.835 87.0002 250.966C89.4184 252.097 92.0392 252.73 94.7069 252.829C97.3746 252.928 100.035 252.489 102.53 251.54H102.6Z" fill="black"/>
<path opacity="0.25" d="M172.1 292.73C182.96 290.93 211.2 266.08 211.2 266.08C211.2 266.08 176.47 251.61 165.61 253.4C160.394 254.261 155.735 257.158 152.655 261.454C149.576 265.751 148.329 271.094 149.19 276.31C150.051 281.525 152.948 286.185 157.244 289.265C161.541 292.344 166.884 293.591 172.1 292.73V292.73Z" fill="black"/>
<path opacity="0.25" d="M103.49 140.27C103.49 151.27 83.59 183.2 83.59 183.2C83.59 183.2 63.65 151.29 63.64 140.29C63.5805 137.636 64.052 134.997 65.0266 132.527C66.0012 130.058 67.4593 127.808 69.3154 125.91C71.1715 124.012 73.3881 122.503 75.8351 121.474C78.2821 120.444 80.9102 119.914 83.565 119.914C86.2198 119.914 88.8479 120.444 91.2949 121.474C93.7419 122.503 95.9585 124.012 97.8146 125.91C99.6707 127.808 101.129 130.058 102.103 132.527C103.078 134.997 103.549 137.636 103.49 140.29V140.27Z" fill="black"/>
<path opacity="0.25" d="M184.17 189.54C180.88 200.04 152.33 224.54 152.33 224.54C152.33 224.54 142.85 188.09 146.1 177.54C147.847 172.709 151.391 168.74 155.994 166.459C160.596 164.179 165.901 163.763 170.803 165.3C175.704 166.836 179.823 170.205 182.301 174.705C184.778 179.204 185.423 184.487 184.1 189.45L184.17 189.54Z" fill="black"/>
<path opacity="0.25" d="M256.01 248.09C254.55 259 230.55 287.97 230.55 287.97C230.55 287.97 215.05 253.69 216.55 242.78C217.327 237.605 220.107 232.943 224.292 229.801C228.476 226.659 233.728 225.288 238.915 225.985C244.101 226.683 248.805 229.392 252.011 233.527C255.217 237.663 256.668 242.894 256.05 248.09H256.01Z" fill="black"/>
<path d="M255.34 324.24C255.34 324.24 246.34 231.06 192.46 181.5C169.87 160.7 154.17 133.5 148.56 103.26C145.927 88.927 144.615 74.3827 144.64 59.8099" stroke="#535461" stroke-width="2" stroke-miterlimit="10"/>
<path d="M110.89 28.3799C115.01 38.5899 145.42 60.7399 145.42 60.7399C145.42 60.7399 151.97 23.6899 147.86 13.4799C145.884 8.57343 142.04 4.65279 137.174 2.58052C132.307 0.508241 126.816 0.454078 121.91 2.42994C117.003 4.4058 113.083 8.24984 111.011 13.1164C108.938 17.983 108.884 23.4734 110.86 28.3799H110.89Z" fill="#5563F5"/>
<path d="M103.1 97.2299C112.1 103.56 149.67 105.63 149.67 105.63C149.67 105.63 135.1 70.9699 126.1 64.6399C121.778 61.5899 116.422 60.3816 111.209 61.2809C105.997 62.1801 101.355 65.1132 98.305 69.4349C95.255 73.7566 94.0467 79.1129 94.946 84.3255C95.8452 89.5381 98.7783 94.1799 103.1 97.2299V97.2299Z" fill="#5563F5"/>
<path d="M143.41 193.31C154.41 194.24 187.85 177.05 187.85 177.05C187.85 177.05 157.72 154.52 146.75 153.6C144.11 153.319 141.441 153.568 138.9 154.333C136.358 155.097 133.994 156.362 131.948 158.052C129.901 159.743 128.213 161.825 126.982 164.177C125.751 166.528 125.003 169.102 124.78 171.748C124.558 174.393 124.866 177.055 125.686 179.58C126.507 182.104 127.824 184.439 129.559 186.448C131.295 188.456 133.414 190.098 135.792 191.276C138.171 192.455 140.761 193.146 143.41 193.31Z" fill="#5563F5"/>
<path d="M190.25 259.15C200.91 261.91 236.8 250.63 236.8 250.63C236.8 250.63 210.91 223.33 200.26 220.57C195.176 219.338 189.812 220.155 185.325 222.843C180.838 225.531 177.587 229.876 176.275 234.939C174.962 240.002 175.693 245.379 178.31 249.908C180.926 254.438 185.218 257.757 190.26 259.15H190.25Z" fill="#5563F5"/>
<path d="M189.3 91.97C184.85 102.03 153.71 123.14 153.71 123.14C153.71 123.14 148.41 85.9 152.86 75.83C153.891 73.3937 155.396 71.1869 157.288 69.3383C159.18 67.4897 161.422 66.0363 163.882 65.0629C166.341 64.0895 168.97 63.6155 171.615 63.6686C174.26 63.7216 176.868 64.3007 179.286 65.372C181.705 66.4433 183.886 67.9854 185.703 69.9084C187.52 71.8314 188.935 74.0968 189.867 76.5725C190.799 79.0482 191.229 81.6847 191.132 84.3283C191.034 86.9718 190.412 89.5696 189.3 91.97V91.97Z" fill="#5563F5"/>
<path d="M243.1 169.65C235.84 177.92 199.81 188.75 199.81 188.75C199.81 188.75 205.89 151.63 213.16 143.36C214.886 141.394 216.983 139.787 219.33 138.632C221.677 137.476 224.229 136.794 226.84 136.625C229.45 136.455 232.069 136.802 234.546 137.644C237.023 138.487 239.309 139.809 241.275 141.535C243.241 143.261 244.848 145.358 246.003 147.705C247.159 150.052 247.841 152.604 248.01 155.214C248.18 157.825 247.833 160.444 246.991 162.921C246.148 165.397 244.826 167.684 243.1 169.65V169.65Z" fill="#5563F5"/>
<path d="M285.1 252.34C279.34 261.72 245.66 278.48 245.66 278.48C245.66 278.48 245.38 240.86 251.14 231.48C253.906 226.971 258.35 223.746 263.494 222.514C268.638 221.282 274.061 222.144 278.57 224.91C283.079 227.676 286.304 232.12 287.536 237.264C288.768 242.408 287.906 247.831 285.14 252.34H285.1Z" fill="#5563F5"/>
<path opacity="0.1" d="M408.16 852.7C469.756 852.7 519.69 846.199 519.69 838.18C519.69 830.161 469.756 823.66 408.16 823.66C346.564 823.66 296.63 830.161 296.63 838.18C296.63 846.199 346.564 852.7 408.16 852.7Z" fill="#5563F5"/>
<path opacity="0.1" d="M182.88 842.86C201.591 842.86 216.76 840.263 216.76 837.06C216.76 833.857 201.591 831.26 182.88 831.26C164.169 831.26 149 833.857 149 837.06C149 840.263 164.169 842.86 182.88 842.86Z" fill="#5563F5"/>
<path d="M190.24 772.48C190.24 772.48 195.73 779.67 187.7 790.48C179.67 801.29 173.05 810.48 175.7 817.25C175.7 817.25 187.81 797.1 197.7 796.82C207.59 796.54 201.1 784.6 190.24 772.48Z" fill="#5563F5"/>
<path opacity="0.1" d="M190.24 772.48C190.72 773.176 191.097 773.937 191.36 774.74C200.98 786.04 206.11 796.59 196.86 796.85C188.25 797.1 177.91 812.5 175.44 816.39C175.522 816.691 175.618 816.988 175.73 817.28C175.73 817.28 187.84 797.13 197.73 796.85C207.62 796.57 201.1 784.6 190.24 772.48Z" fill="black"/>
<path d="M200.45 781.64C200.45 784.17 200.17 786.22 199.82 786.22C199.47 786.22 199.18 784.22 199.18 781.64C199.18 779.06 199.54 780.3 199.89 780.3C200.24 780.3 200.45 779.11 200.45 781.64Z" fill="#FFD037"/>
<path d="M203.96 784.66C201.74 785.87 199.8 786.6 199.63 786.29C199.46 785.98 201.13 784.75 203.35 783.54C205.57 782.33 204.69 783.21 204.86 783.54C205.03 783.87 206.18 783.45 203.96 784.66Z" fill="#FFD037"/>
<path d="M161.22 772.48C161.22 772.48 155.73 779.67 163.76 790.48C171.79 801.29 178.41 810.48 175.76 817.25C175.76 817.25 163.65 797.1 153.76 796.82C143.87 796.54 150.38 784.6 161.22 772.48Z" fill="#5563F5"/>
<path opacity="0.1" d="M161.22 772.48C160.74 773.176 160.363 773.937 160.1 774.74C150.48 786.04 145.35 796.59 154.6 796.85C163.22 797.1 173.55 812.5 176.02 816.39C175.943 816.693 175.846 816.99 175.73 817.28C175.73 817.28 163.62 797.13 153.73 796.85C143.84 796.57 150.38 784.6 161.22 772.48Z" fill="black"/>
<path d="M151.01 781.64C151.01 784.17 151.29 786.22 151.64 786.22C151.99 786.22 152.28 784.22 152.28 781.64C152.28 779.06 151.92 780.3 151.57 780.3C151.22 780.3 151.01 779.11 151.01 781.64Z" fill="#FFD037"/>
<path d="M147.51 784.66C149.73 785.87 151.66 786.6 151.83 786.29C152 785.98 150.33 784.75 148.11 783.54C145.89 782.33 146.77 783.21 146.6 783.54C146.43 783.87 145.29 783.45 147.51 784.66Z" fill="#FFD037"/>
<path d="M152.76 816.34C152.76 816.34 168.12 815.86 172.76 812.57C177.4 809.28 196.38 805.33 197.53 810.62C198.68 815.91 220.61 836.91 203.27 837.05C185.93 837.19 162.98 834.35 158.36 831.54C153.74 828.73 152.76 816.34 152.76 816.34Z" fill="#A8A8A8"/>
<path opacity="0.2" d="M203.57 835.21C186.23 835.35 163.28 832.51 158.66 829.7C155.14 827.55 153.74 819.86 153.27 816.32H152.76C152.76 816.32 153.76 828.7 158.35 831.52C162.94 834.34 185.92 837.17 203.26 837.03C208.26 837.03 210 835.21 209.9 832.57C209.21 834.19 207.3 835.18 203.57 835.21Z" fill="black"/>
<path d="M665.7 815.75C665.7 815.75 623.42 813.2 628.41 842.83C628.41 842.83 627.41 848.06 632.16 850.44C632.16 850.44 632.24 848.25 636.5 848.99C638.016 849.245 639.557 849.319 641.09 849.21C643.167 849.073 645.141 848.258 646.71 846.89V846.89C646.71 846.89 658.59 841.99 663.21 822.56C663.21 822.56 666.63 818.32 666.5 817.23L659.36 820.23C659.36 820.23 661.8 825.38 659.88 829.66C659.88 829.66 659.65 820.42 658.28 820.66C658 820.66 654.57 822.44 654.57 822.44C654.57 822.44 658.77 831.44 655.57 837.92C655.57 837.92 656.77 826.92 653.23 823.09L648.23 826.02C648.23 826.02 653.13 835.28 649.81 842.84C649.81 842.84 650.66 831.25 647.18 826.73L642.63 830.28C642.63 830.28 647.23 839.41 644.42 845.68C644.42 845.68 644.06 832.19 641.64 831.17C641.64 831.17 637.64 834.68 637.05 836.17C637.05 836.17 640.2 842.79 638.25 846.29C638.25 846.29 637.05 837.29 636.06 837.29C636.06 837.29 632.06 843.29 631.68 847.29C631.68 847.29 631.86 841.22 635.1 836.68C632.813 837.116 630.703 838.211 629.03 839.83C629.03 839.83 629.65 835.62 636.03 835.25C636.03 835.25 639.31 830.73 640.19 830.46C640.19 830.46 633.79 829.92 629.91 831.64C629.91 831.64 633.32 827.64 641.36 829.47L645.85 825.81C645.85 825.81 637.43 824.65 633.85 825.93C633.85 825.93 637.97 822.41 647.06 824.93L651.96 822.01C651.96 822.01 644.77 820.46 640.49 821.01C640.49 821.01 645.01 818.57 653.39 821.21L656.89 819.64C656.89 819.64 651.62 818.64 650.08 818.45C648.54 818.26 648.46 817.86 648.46 817.86C651.795 817.304 655.219 817.685 658.35 818.96C658.35 818.96 665.83 816.22 665.7 815.75Z" fill="#5563F5"/>
<path opacity="0.1" d="M636.58 858.08C653.104 858.08 666.5 855.815 666.5 853.02C666.5 850.225 653.104 847.96 636.58 847.96C620.056 847.96 606.66 850.225 606.66 853.02C606.66 855.815 620.056 858.08 636.58 858.08Z" fill="#5563F5"/>
<path d="M591.63 817.33C591.63 817.33 567.79 815.89 570.63 832.6C570.487 833.447 570.614 834.318 570.995 835.088C571.376 835.859 571.99 836.489 572.75 836.89C572.75 836.89 572.75 835.65 575.2 836.07C576.052 836.209 576.918 836.252 577.78 836.2C578.95 836.114 580.061 835.655 580.95 834.89V834.89C580.95 834.89 587.65 832.12 590.26 821.17C590.26 821.17 592.18 818.78 592.11 818.17L588.11 819.88C588.11 819.88 589.48 822.79 588.4 825.2C588.4 825.2 588.27 819.99 587.5 820.11C587.34 820.11 585.41 821.11 585.41 821.11C585.41 821.11 587.77 826.11 585.99 829.84C585.99 829.84 586.66 823.61 584.67 821.47L581.84 823.13C581.84 823.13 584.6 828.35 582.73 832.61C582.73 832.61 583.21 826.07 581.24 823.53L578.68 825.53C578.68 825.53 581.27 830.68 579.68 834.21C579.68 834.21 579.47 826.6 578.11 826.03C577.136 826.851 576.266 827.788 575.52 828.82C575.52 828.82 577.3 832.56 576.2 834.53C576.2 834.53 575.52 829.46 574.97 829.44C574.97 829.44 572.73 832.8 572.5 835.1C572.601 832.966 573.264 830.896 574.42 829.1C573.132 829.344 571.943 829.959 571 830.87C571 830.87 571.35 828.49 575 828.29C575 828.29 576.84 825.74 577.34 825.59C577.34 825.59 573.73 825.28 571.54 826.25C571.54 826.25 573.47 824.01 578 825.03L580.53 822.96C580.53 822.96 575.78 822.31 573.77 823.03C573.77 823.03 576.09 821.03 581.22 822.49L583.97 820.85C581.851 820.38 579.679 820.192 577.51 820.29C577.51 820.29 580.06 818.92 584.78 820.4L586.78 819.52C586.78 819.52 583.78 818.93 582.95 818.84C582.12 818.75 582.03 818.51 582.03 818.51C583.912 818.197 585.843 818.412 587.61 819.13C587.61 819.13 591.7 817.6 591.63 817.33Z" fill="#5563F5"/>
<path opacity="0.1" d="M575.21 841.2C584.527 841.2 592.08 839.924 592.08 838.35C592.08 836.776 584.527 835.5 575.21 835.5C565.893 835.5 558.34 836.776 558.34 838.35C558.34 839.924 565.893 841.2 575.21 841.2Z" fill="#5563F5"/>
<path d="M637 781.92C637 781.92 608.23 780.18 611.62 800.35C611.446 801.373 611.6 802.425 612.059 803.355C612.519 804.286 613.261 805.047 614.18 805.53C614.18 805.53 614.18 804.04 617.13 804.53C618.161 804.695 619.208 804.745 620.25 804.68C621.663 804.579 623.006 804.025 624.08 803.1V803.1C624.08 803.1 632.17 799.76 635.31 786.53C635.31 786.53 637.64 783.65 637.55 782.91L632.69 784.98C632.69 784.98 634.35 788.49 633.05 791.4C633.05 791.4 632.89 785.11 631.95 785.26C631.77 785.26 629.43 786.47 629.43 786.47C629.43 786.47 632.29 792.58 630.13 797.01C630.13 797.01 630.95 789.49 628.54 786.91L625.12 788.91C625.12 788.91 628.46 795.21 626.2 800.36C626.2 800.36 626.78 792.47 624.4 789.36L621.3 791.77C621.3 791.77 624.44 797.98 622.53 802.25C622.53 802.25 622.28 793.07 620.63 792.37C620.63 792.37 617.92 794.76 617.51 795.74C617.51 795.74 619.66 800.25 618.32 802.63C618.32 802.63 617.51 796.52 616.84 796.49C616.84 796.49 614.14 800.49 613.84 803.32C613.969 800.752 614.769 798.263 616.16 796.1C614.604 796.396 613.169 797.14 612.03 798.24C612.03 798.24 612.45 795.37 616.83 795.12C616.83 795.12 619.06 792.05 619.66 791.86C619.66 791.86 615.3 791.5 612.66 792.67C612.66 792.67 614.98 789.96 620.46 791.19L623.52 788.7C623.52 788.7 617.78 787.91 615.35 788.78C615.35 788.78 618.15 786.39 624.35 788.13L627.68 786.13C627.68 786.13 622.79 785.13 619.88 785.46C619.88 785.46 622.95 783.8 628.66 785.59L631.04 784.53C631.04 784.53 627.45 783.82 626.4 783.71C625.35 783.6 625.3 783.31 625.3 783.31C627.569 782.932 629.899 783.192 632.03 784.06C632.03 784.06 637.1 782.24 637 781.92Z" fill="#5563F5"/>
<path opacity="0.1" d="M617.19 810.73C628.44 810.73 637.56 809.19 637.56 807.29C637.56 805.39 628.44 803.85 617.19 803.85C605.94 803.85 596.82 805.39 596.82 807.29C596.82 809.19 605.94 810.73 617.19 810.73Z" fill="#5563F5"/>
<path d="M840 585.67V96.54H136.75V557.61C145.731 567.75 156.531 576.28 167.797 583.29C173.346 586.75 179.013 589.913 184.799 592.78H831.61L840 585.67Z" fill="url(#paint0_linear)"/>
<path d="M838.64 585.87V110.54H138.288V558.64C147.232 568.5 157.988 576.79 169.187 583.64C174.716 586.973 180.364 590.047 186.129 592.86H830.265L838.64 585.87Z" fill="white"/>
<path d="M838.64 97.9301H138.295V123.07H838.64V97.9301Z" fill="#5A5773"/>
<path d="M157.76 117C161.35 117 164.26 114.09 164.26 110.5C164.26 106.91 161.35 104 157.76 104C154.17 104 151.26 106.91 151.26 110.5C151.26 114.09 154.17 117 157.76 117Z" fill="white"/>
<path d="M175.26 117C178.85 117 181.76 114.09 181.76 110.5C181.76 106.91 178.85 104 175.26 104C171.67 104 168.76 106.91 168.76 110.5C168.76 114.09 171.67 117 175.26 117Z" fill="white"/>
<path d="M192.76 117C196.35 117 199.26 114.09 199.26 110.5C199.26 106.91 196.35 104 192.76 104C189.17 104 186.26 106.91 186.26 110.5C186.26 114.09 189.17 117 192.76 117Z" fill="white"/>
<path d="M537.45 178.32H380.95V276.66H537.45V178.32Z" fill="#5563F5"/>
<path opacity="0.2" d="M320.76 178.32H164.26V276.66H320.76V178.32Z" fill="#5A5773"/>
<path opacity="0.2" d="M754.14 178.32H597.64V276.66H754.14V178.32Z" fill="#5A5773"/>
<path opacity="0.2" d="M320.76 318.91H164.26V417.25H320.76V318.91Z" fill="#5A5773"/>
<path opacity="0.2" d="M537.45 318.91H380.95V417.25H537.45V318.91Z" fill="#5A5773"/>
<path opacity="0.2" d="M754.14 318.91H597.64V417.25H754.14V318.91Z" fill="#5A5773"/>
<path opacity="0.2" d="M320.76 459.49H164.26V557.83H320.76V459.49Z" fill="#5A5773"/>
<path opacity="0.2" d="M537.45 459.49H380.95V557.83H537.45V459.49Z" fill="#5A5773"/>
<path opacity="0.2" d="M754.14 459.49H597.64V557.83H754.14V459.49Z" fill="#5A5773"/>
<path d="M499.1 264.46L488.3 268.28L484.38 261.78C481.38 256.78 477.22 249.94 474.15 244.97C468.73 236.23 475.82 222.91 475.82 222.91C475.82 222.91 477.1 209.54 481.66 205.42C486.22 201.3 487.49 222.91 487.49 222.91C505.8 231.23 495.99 250.8 495.99 250.8L497.77 258.56L499.1 264.46Z" fill="#EFB7B9"/>
<path opacity="0.1" d="M499.1 264.46L488.3 268.28L484.38 261.78V261.21C484.38 261.21 490.57 256.96 497.79 258.56L499.1 264.46Z" fill="black"/>
<path d="M481.66 308.26L487.07 303.68L484.36 262.46C484.36 262.46 498.36 252.88 508.72 267.87C508.72 267.87 508.3 277.03 508.72 279.53C509.14 282.03 505.81 284.53 508.72 287.02C511.63 289.51 508.72 297.85 508.72 297.85C508.72 297.85 512.01 303.68 514.09 305.34C516.17 307 518.26 320.75 514.09 323.66C509.92 326.57 502.1 333.24 502.1 336.15C502.1 339.06 492.1 346.15 492.1 346.15L483.32 334.54L481.66 308.26Z" fill="#FF6484"/>
<path d="M364.66 558.48C344.48 549.92 348.96 529.01 352.76 518.48C353.519 516.347 354.411 514.263 355.43 512.24L366.75 505.37C366.75 505.37 369.06 511.26 371.53 519.16C377.26 537.54 383.85 566.63 364.66 558.48Z" fill="#EFB7B9"/>
<path d="M392.4 749.27C391.034 751.932 390.025 754.764 389.4 757.69C388.401 762.398 387.965 767.209 388.1 772.02C388.18 775.35 388.46 777.53 388.46 777.53L365.98 792.99C365.98 792.99 366.11 791.18 366.33 788.52C366.91 781.44 368.12 768.3 369.26 766.6C370.05 765.42 370.6 760.68 370.95 756.28C371.3 751.88 371.44 748.02 371.44 748.02C371.44 748.02 398.49 737.88 392.4 749.27Z" fill="#EFB7B9"/>
<path d="M445.49 760.36C445.49 760.36 445.49 764.66 445.33 769.66C445.17 774.66 444.87 780.56 444.24 783.31C443.66 785.83 443.62 790.46 443.73 794.73C443.88 799.73 444.24 804.23 444.24 804.23C444.24 804.23 421.29 782.53 423.63 780.81C424.26 780.35 424.88 778.5 425.45 776.04C426.15 773.04 426.78 769.04 427.25 765.64C427.81 761.59 428.16 758.33 428.16 758.33L445.49 760.36Z" fill="#EFB7B9"/>
<path opacity="0.1" d="M392.4 749.27C391.034 751.932 390.025 754.764 389.4 757.69C383.247 757.529 377.106 757.058 371 756.28C371.34 751.98 371.49 748.02 371.49 748.02C371.49 748.02 398.49 737.88 392.4 749.27Z" fill="black"/>
<path opacity="0.1" d="M445.49 760.36C445.49 760.36 445.49 764.66 445.33 769.66C438.17 771.49 430.81 767.83 427.25 765.66C427.81 761.61 428.16 758.35 428.16 758.35L445.49 760.36Z" fill="black"/>
<path d="M492.48 547.66C483.32 567.66 479.57 591.38 479.57 591.38L476.24 611.38C476.24 611.38 477.91 620.12 476.24 623.45C474.57 626.78 471.24 632.2 471.24 632.2C471.24 632.2 473.74 652.6 471.24 654.68C468.74 656.76 471.24 669.25 471.24 669.25L462.91 711.25L451.25 765.37C440.01 774.54 425.05 762.88 425.05 762.88L428.35 727.49C428.35 727.49 433.35 665.49 431.27 662.95C429.19 660.41 432.1 652.54 432.1 652.54C432.1 652.54 435.02 645.04 432.94 642.13C430.86 639.22 433.35 632.97 433.35 632.97C433.35 632.97 432.52 607.57 435.02 601.74C437.52 595.91 435.02 559.85 435.02 559.85L434.02 548.62L433.44 542.4L433.39 541.79C433.39 541.79 433.01 544.28 432.39 548.14C430.55 559.89 426.63 584.24 425.08 589.25C424.026 592.86 422.595 596.35 420.81 599.66C420.81 599.66 422.97 612.15 420.81 615.48C418.65 618.81 420.48 622.56 420.48 622.56C420.48 622.56 422.56 632.97 416.31 637.13C410.06 641.29 416.31 643.38 416.31 643.38C416.31 643.38 411.73 653.38 410.07 657.53C408.41 661.68 410.07 667.53 410.07 667.53L406.74 701.25C406.74 701.25 403.82 715.4 404.24 724.98C404.66 734.56 400.49 756.62 400.49 756.62C400.49 756.62 368.43 756.62 363.49 752.87C358.55 749.12 371.74 712.54 371.74 712.54C371.74 712.54 375.49 648.42 374.65 646.76C373.81 645.1 374.65 632.6 377.57 630.11C380.49 627.62 377.57 622.61 377.57 622.61C377.57 622.61 376.74 612.61 377.57 610.12C378.4 607.63 377.44 599.29 377.44 599.29C377.44 599.29 374.65 578.89 374.24 567.23C373.83 555.57 371.74 529.35 371.74 529.35C371.74 529.35 373.92 513.13 374.25 505.41C374.37 502.57 375.64 499.02 377.25 495.68C379.052 491.909 381.124 488.273 383.45 484.8C383.45 484.8 482.1 455.64 486.24 458.54C487.34 459.31 488.94 464.54 490.52 472.11C494.92 493.26 499.22 532.96 492.48 547.66Z" fill="#444053"/>
<path d="M431.7 293.19C447.567 293.19 460.43 280.327 460.43 264.46C460.43 248.593 447.567 235.73 431.7 235.73C415.833 235.73 402.97 248.593 402.97 264.46C402.97 280.327 415.833 293.19 431.7 293.19Z" fill="#A1616A"/>
<path opacity="0.1" d="M490.52 472.13C487.21 473.83 484.99 475 484.99 475C484.99 475 438.36 497.07 425.1 495.82C414.84 494.82 388.65 495.39 377.24 495.67C379.042 491.899 381.114 488.263 383.44 484.79C383.44 484.79 482.1 455.64 486.24 458.54C487.34 459.33 488.94 464.54 490.52 472.13Z" fill="black"/>
<path d="M411.71 310.34C411.71 310.34 385.1 314.54 378.82 318.66C372.54 322.78 360.1 330.74 360.1 347.81C360.1 364.88 357.19 382.37 355.52 387.36C353.85 392.35 381.75 432.74 381.75 432.74L371.75 493.95C371.75 493.95 411.75 492.7 425.07 493.95C438.39 495.2 485 473.13 485 473.13C485 473.13 512.48 458.56 518.31 458.13C524.14 457.7 506.65 426.07 506.65 426.07C506.65 426.07 479.58 374.87 484.16 366.54C488.74 358.21 492.1 346.14 492.1 346.14L487.1 303.68C487.1 303.68 479.61 301.18 473.36 305.76C467.11 310.34 445.88 307.84 445.88 307.84L411.71 310.34Z" fill="#FF6484"/>
<path opacity="0.1" d="M366.54 384.45L356.1 387.36L353.21 426.54C353.21 426.54 356.96 436.95 353.21 440.28C349.46 443.61 348.63 514.81 348.63 514.81C348.63 514.81 360.71 523.55 374.86 516.89C374.86 516.89 372.78 508.98 379.03 480.25C385.28 451.52 385.27 436.95 385.27 436.95C385.27 436.95 385.27 401.14 388.19 395.31C391.11 389.48 388.19 374.91 388.19 374.91C388.19 374.91 382.36 367 382.77 364.09C383.18 361.18 366.54 384.45 366.54 384.45Z" fill="black"/>
<path opacity="0.1" d="M371.53 519.19C365.399 521.254 358.726 521.012 352.76 518.51C353.519 516.377 354.411 514.292 355.43 512.27L366.75 505.4C366.75 505.4 369.1 511.29 371.53 519.19Z" fill="black"/>
<path d="M365.91 384.45L355.5 387.36L352.59 426.54C352.59 426.54 356.34 436.95 352.59 440.28C348.84 443.61 348.01 514.81 348.01 514.81C348.01 514.81 360.1 523.54 374.24 516.85C374.24 516.85 372.16 508.94 378.4 480.21C384.64 451.48 384.65 436.91 384.65 436.91C384.65 436.91 384.65 401.1 387.56 395.27C390.47 389.44 387.56 374.87 387.56 374.87C387.56 374.87 381.73 366.96 382.15 364.05C382.57 361.14 365.91 384.45 365.91 384.45Z" fill="#FF6484"/>
<path opacity="0.1" d="M472.5 390.69C472.5 390.69 467.09 437.32 451.26 446.07C451.26 446.07 486.65 436.08 472.5 390.69Z" fill="black"/>
<path opacity="0.1" d="M392.98 394.86C392.98 394.86 412.54 404.43 407.98 411.09C403.42 417.75 392.98 394.86 392.98 394.86Z" fill="black"/>
<path opacity="0.1" d="M392.98 414.01C392.98 414.01 405.47 426.92 402.98 431.5C400.49 436.08 392.98 414.01 392.98 414.01Z" fill="black"/>
<path opacity="0.1" d="M493.73 307.01C493.73 307.01 498.63 315.33 499.1 320.75C499.57 326.17 493.73 307.01 493.73 307.01Z" fill="black"/>
<path opacity="0.1" d="M493.73 295.77C493.73 295.77 496.19 293.68 502.47 295.77C508.75 297.86 493.73 295.77 493.73 295.77Z" fill="black"/>
<path opacity="0.1" d="M469.69 539.12C459.374 540.583 448.854 539.236 439.24 535.22L433.99 548.66L433.41 542.44C434.27 537.22 435.94 531.63 439.24 530.22C439.24 530.22 450.8 539.43 469.69 539.12Z" fill="black"/>
<path opacity="0.1" d="M384.28 556.61C384.28 556.61 409.89 561.92 417.07 560.98L384.28 556.61Z" fill="black"/>
<path opacity="0.1" d="M386.94 563.32C386.94 563.32 397.87 562.85 403.33 565.04L386.94 563.32Z" fill="black"/>
<path opacity="0.1" d="M388.19 567.85C393.177 568.91 398.239 569.578 403.33 569.85L388.19 567.85Z" fill="black"/>
<path opacity="0.1" d="M387.56 625.15C388.03 624.84 409.42 619.84 412.08 623.43L387.56 625.15Z" fill="black"/>
<path opacity="0.1" d="M387.56 631.71C387.56 631.71 406.14 629.52 406.61 631.71C407.08 633.9 387.56 631.71 387.56 631.71Z" fill="black"/>
<path opacity="0.1" d="M387.56 637.64C387.56 637.64 407.39 633.54 409.73 634.54C412.07 635.54 387.56 637.64 387.56 637.64Z" fill="black"/>
<path opacity="0.1" d="M388.5 777.54L366.02 793C366.02 793 366.15 791.19 366.37 788.53C371.37 776.23 377.88 769.74 377.88 769.74C382.95 768.42 386.15 769.64 388.14 772.03C388.22 775.35 388.5 777.54 388.5 777.54Z" fill="black"/>
<path d="M390.69 791.43C387.513 798.677 385.915 806.518 386 814.43C386.127 820.918 384.481 827.318 381.24 832.94C380.771 833.732 380.243 834.488 379.66 835.2C379.66 835.2 364.04 835.07 358.57 830.54C357.955 830.054 357.454 829.44 357.1 828.74C353.97 822.5 363.19 798.61 363.19 798.61C368.03 780.19 377.86 770.35 377.86 770.35C395.37 765.82 390.69 791.43 390.69 791.43Z" fill="#444053"/>
<path opacity="0.1" d="M381.24 832.89C380.771 833.682 380.243 834.437 379.66 835.15C379.66 835.15 364.04 835.02 358.57 830.49C361.26 821.59 369.84 794.66 373.86 799.24C377.64 803.54 380.27 824.23 381.24 832.89Z" fill="black"/>
<path d="M379.1 800.91L378.01 841.25H383.25C383.25 841.25 384.1 805.86 386.44 800.91C388.78 795.96 379.1 800.91 379.1 800.91Z" fill="#444053"/>
<path opacity="0.1" d="M444.24 804.23C444.24 804.23 421.29 782.53 423.63 780.81C424.26 780.35 424.88 778.5 425.45 776.04C429.86 775.27 437.45 777.11 443.73 794.73C443.88 799.73 444.24 804.23 444.24 804.23Z" fill="black"/>
<path d="M447.67 828.43C447.494 828.506 447.309 828.559 447.12 828.59C444.42 829.06 434.47 828.79 428.9 828.59C427.879 828.556 426.912 828.128 426.201 827.394C425.49 826.661 425.092 825.681 425.09 824.66C425.09 823.16 425.09 821.33 424.97 819.38C424.71 813.22 423.97 805.89 421.76 804.24C417.85 801.24 414.76 791.06 421.76 778.17C421.76 778.17 435.18 767.92 444.86 798.73C444.86 798.73 445.8 807.52 450.01 810.64C454.22 813.76 449.55 827.54 447.67 828.43Z" fill="#444053"/>
<path opacity="0.1" d="M447.1 828.59C444.4 829.06 434.45 828.79 428.88 828.59C427.859 828.556 426.892 828.128 426.181 827.395C425.47 826.661 425.072 825.681 425.07 824.66C425.07 823.16 425.07 821.33 424.95 819.38C426.64 811.92 429.07 804.24 432.2 802.49C432.22 802.48 441.69 801.41 447.1 828.59Z" fill="black"/>
<path d="M423.46 801.58L425.98 835.15H429.18V798.72L423.46 801.58Z" fill="#444053"/>
<path opacity="0.1" d="M431.28 218.68C422.209 219.355 413.428 222.176 405.66 226.91C403.66 228.12 401.66 229.59 400.83 231.76C400.11 233.64 400.41 235.76 400.44 237.76C400.71 254.98 381.51 268.01 382.11 285.22C382.35 292.05 385.78 298.41 386.41 305.22C387.46 316.58 380.74 327.03 374.3 336.44C380.935 336.844 387.47 334.677 392.55 330.39C399.345 353.04 400.223 377.054 395.1 400.14H404.31C405.22 400.074 406.133 400.186 407 400.47C407.808 400.854 408.532 401.394 409.13 402.06C417.74 410.63 423.51 423.3 420.22 435L439.82 427.65C444.51 425.89 449.27 424.1 453.35 421.2C457.43 418.3 460.85 414.09 461.71 409.15C462.24 406.15 462.07 402.57 464.54 400.83C465.757 400.183 467.055 399.702 468.4 399.4C473.78 397.5 476.16 391.28 477.26 385.68C478.599 378.809 479.02 371.791 478.51 364.81C477.64 353.11 474.18 341.23 477.03 329.81C478.64 323.4 482.22 317.43 482.51 310.81C482.98 299.9 474.45 290.5 473.18 279.65C472.29 272.09 475.02 264.44 474.13 256.88C473.636 252.978 472.208 249.253 469.968 246.02C467.727 242.787 464.74 240.143 461.26 238.31C458.85 237.07 456.26 236.24 453.88 234.87C448.45 231.72 444.98 226.05 440.05 222.15C435.12 218.25 426.91 216.78 423.2 221.85L431.28 218.68Z" fill="black"/>
<path d="M431.28 217.43C422.209 218.105 413.428 220.926 405.66 225.66C403.66 226.87 401.66 228.34 400.83 230.51C400.11 232.39 400.41 234.51 400.44 236.51C400.71 253.73 381.51 266.76 382.11 283.98C382.35 290.8 385.78 297.16 386.41 303.98C387.46 315.34 380.74 325.79 374.3 335.21C380.933 335.599 387.463 333.434 392.55 329.16C399.344 351.804 400.222 375.811 395.1 398.89H404.31C405.22 398.827 406.134 398.942 407 399.23C407.81 399.607 408.535 400.144 409.13 400.81C417.74 409.39 423.51 422.05 420.22 433.75L439.82 426.4C444.51 424.64 449.27 422.85 453.35 419.95C457.43 417.05 460.85 412.84 461.71 407.9C462.24 404.9 462.07 401.32 464.54 399.58C465.757 398.933 467.055 398.452 468.4 398.15C473.78 396.25 476.16 390.03 477.26 384.43C478.611 377.554 479.042 370.529 478.54 363.54C477.67 351.84 474.21 339.96 477.06 328.54C478.67 322.13 482.25 316.16 482.54 309.54C483.01 298.63 474.48 289.23 473.21 278.38C472.32 270.82 475.05 263.18 474.16 255.61C473.664 251.709 472.236 247.984 469.996 244.751C467.755 241.519 464.769 238.874 461.29 237.04C458.88 235.8 456.29 234.97 453.91 233.61C448.48 230.45 445.01 224.78 440.08 220.88C435.15 216.98 426.94 215.51 423.23 220.58L431.28 217.43Z" fill="#925978"/>
<g opacity="0.1">
<path opacity="0.1" d="M400.42 232.35C400.38 232.735 400.36 233.123 400.36 233.51C400.39 233.13 400.41 232.74 400.42 232.35Z" fill="black"/>
<path opacity="0.1" d="M473.1 272.38C473.46 267.08 474.64 261.76 474.2 256.48C473.87 261.78 472.69 267.1 473.1 272.38Z" fill="black"/>
<path opacity="0.1" d="M386.41 298.73C385.83 292.53 382.94 286.73 382.26 280.54C382.124 281.675 382.074 282.818 382.11 283.96C382.35 290.71 385.7 297.02 386.38 303.74C386.545 302.075 386.555 300.397 386.41 298.73Z" fill="black"/>
<path opacity="0.1" d="M477.1 323.36C476.164 327.429 475.827 331.613 476.1 335.78C476.2 333.35 476.535 330.935 477.1 328.57C478.71 322.16 482.29 316.19 482.58 309.57C482.627 308.394 482.574 307.217 482.42 306.05C481.64 312 478.53 317.54 477.1 323.36Z" fill="black"/>
<path opacity="0.1" d="M392.55 323.9C388.379 327.395 383.217 329.494 377.79 329.9C376.65 331.68 375.47 333.42 374.3 335.14C380.933 335.529 387.463 333.365 392.55 329.09C396.203 341.246 398.162 353.848 398.37 366.54C398.667 352.11 396.703 337.723 392.55 323.9V323.9Z" fill="black"/>
<path opacity="0.1" d="M477.29 379.19C476.19 384.79 473.81 391.01 468.43 392.9C467.083 393.2 465.784 393.685 464.57 394.34C462.1 396.08 462.27 399.68 461.74 402.66C460.88 407.6 457.47 411.8 453.38 414.66C449.29 417.52 444.54 419.36 439.85 421.12L421.15 428.12C421.053 429.997 420.751 431.858 420.25 433.67L439.85 426.32C444.54 424.56 449.3 422.77 453.38 419.87C457.46 416.97 460.88 412.76 461.74 407.82C462.27 404.82 462.1 401.24 464.57 399.5C465.787 398.853 467.085 398.372 468.43 398.07C473.81 396.17 476.19 389.95 477.29 384.35C478.429 378.522 478.902 372.584 478.7 366.65C478.568 370.861 478.097 375.055 477.29 379.19V379.19Z" fill="black"/>
<path opacity="0.1" d="M409.16 395.54C408.565 394.871 407.84 394.33 407.03 393.95C406.163 393.666 405.25 393.551 404.34 393.61H396.17C395.85 395.35 395.51 397.09 395.17 398.82H404.38C405.29 398.757 406.204 398.872 407.07 399.16C407.88 399.537 408.605 400.074 409.2 400.74C415.5 407.02 420.27 415.48 421.09 424.16C422.1 413.78 416.72 403.1 409.16 395.54Z" fill="black"/>
</g>
<path opacity="0.1" d="M363.47 429.62C363.47 429.62 370.91 426.5 372.57 429.62C374.23 432.74 363.47 429.62 363.47 429.62Z" fill="black"/>
<path opacity="0.1" d="M366.1 434.97C366.1 434.97 373.54 431.85 375.21 434.97C376.88 438.09 366.1 434.97 366.1 434.97Z" fill="black"/>
<path opacity="0.1" d="M827.21 31.22C827.21 31.22 789.16 28.93 793.65 55.59C793.65 55.59 792.76 60.3 797.03 62.44C797.03 62.44 797.1 60.44 800.93 61.13C802.294 61.3595 803.68 61.4267 805.06 61.33C806.923 61.201 808.692 60.4671 810.1 59.24V59.24C810.1 59.24 820.79 54.83 824.95 37.35C824.95 37.35 828.03 33.53 827.95 32.55L821.53 35.3C821.53 35.3 823.72 39.93 821.99 43.78C821.99 43.78 821.79 35.46 820.55 35.66C820.3 35.66 817.22 37.26 817.22 37.26C817.22 37.26 820.99 45.33 818.14 51.2C818.14 51.2 819.22 41.26 816.04 37.85L811.5 40.54C811.5 40.54 815.91 48.87 812.92 55.67C812.92 55.67 813.69 45.24 810.55 41.18L806.45 44.37C806.45 44.37 810.6 52.54 808.1 58.18C808.1 58.18 807.77 46.03 805.59 45.12C805.59 45.12 802.01 48.28 801.47 49.58C801.47 49.58 804.3 55.58 802.54 58.68C802.54 58.68 801.46 50.6 800.54 50.56C800.54 50.56 796.97 55.92 796.6 59.56C796.773 56.1635 797.832 52.8713 799.67 50.01C797.61 50.3998 795.711 51.3876 794.21 52.85C794.21 52.85 794.76 49.06 800.55 48.72C800.55 48.72 803.5 44.66 804.29 44.41C804.29 44.41 798.53 43.93 795.04 45.48C795.04 45.48 798.11 41.9 805.35 43.48L809.35 40.18C809.35 40.18 801.77 39.18 798.55 40.29C798.55 40.29 802.25 37.13 810.44 39.43L814.84 36.8C814.84 36.8 808.38 35.4 804.53 35.91C804.53 35.91 808.59 33.72 816.13 36.09L819.28 34.68C819.28 34.68 814.54 33.75 813.16 33.6C811.78 33.45 811.7 33.07 811.7 33.07C814.699 32.5709 817.777 32.9172 820.59 34.07C820.59 34.07 827.32 31.64 827.21 31.22Z" fill="#5563F5"/>
<path opacity="0.1" d="M772.98 9.59998C772.98 9.59998 740.98 30.31 760.39 49.12C760.39 49.12 762.46 53.44 767.17 52.64C767.17 52.64 766.05 51 769.54 49.27C770.777 48.647 771.935 47.8782 772.99 46.98C774.415 45.7716 775.408 44.1325 775.82 42.31V42.31C775.82 42.31 781.82 32.41 774.82 15.87C774.82 15.87 775.04 10.97 774.36 10.25L770.82 16.25C770.82 16.25 775.33 18.68 776.22 22.8C776.22 22.8 771.13 16.23 770.22 17.12C770.04 17.3 768.48 20.39 768.48 20.39C768.48 20.39 776.31 24.65 777.48 31.06C777.48 31.06 772.48 22.41 767.87 21.56L765.79 26.36C765.79 26.36 774.29 30.46 775.91 37.71C775.91 37.71 770.34 28.85 765.41 27.44L764.01 32.44C764.01 32.44 772.21 36.6 773.52 42.64C773.52 42.64 766.06 33.06 763.76 33.64C763.76 33.64 762.76 38.3 763.08 39.64C763.08 39.64 768.9 42.76 769.34 46.34C769.34 46.34 763.68 40.47 762.95 40.96C762.95 40.96 763.25 47.39 765.12 50.57C763.25 47.7308 762.154 44.4527 761.94 41.06C760.512 42.5939 759.566 44.5133 759.22 46.58C759.22 46.58 757.42 43.2 761.89 39.5C761.89 39.5 761.89 34.5 762.34 33.81C762.34 33.81 757.42 36.81 755.52 40.15C755.52 40.15 755.88 35.45 762.67 32.47L763.97 27.42C763.97 27.42 757.25 31.08 755.34 33.91C755.34 33.91 756.45 29.17 764.4 26.17L766.4 21.44C766.4 21.44 760.4 24.15 757.56 26.84C757.56 26.84 759.56 22.66 767.02 20.11L768.72 17.11C768.72 17.11 764.35 19.17 763.15 19.87C761.95 20.57 761.66 20.31 761.66 20.31C763.779 18.1301 766.462 16.5824 769.41 15.84C769.41 15.84 773.32 9.87998 772.98 9.59998Z" fill="#5563F5"/>
<path opacity="0.1" d="M724.28 33.73C724.28 33.73 705.15 66.73 730.98 74.66C730.98 74.66 734.79 77.57 738.62 74.66C738.62 74.66 736.89 73.72 739.21 70.59C740.016 69.4729 740.687 68.2645 741.21 66.99C741.933 65.2656 742.077 63.3532 741.62 61.54V61.54C741.62 61.54 742.47 50 728.72 38.43C728.72 38.43 726.72 33.97 725.72 33.64L725.29 40.64C725.29 40.64 730.41 40.76 733.08 44.03C733.08 44.03 725.56 40.48 725.18 41.67C725.1 41.91 725.11 45.37 725.11 45.37C725.11 45.37 734.1 45.64 738.1 50.82C738.1 50.82 729.7 45.39 725.23 46.71L725.55 51.93C725.55 51.93 734.98 51.73 739.71 57.46C739.71 57.46 730.71 52.09 725.71 53.07L726.71 58.16C726.71 58.16 735.91 58.16 739.81 62.94C739.81 62.94 728.81 57.78 727.02 59.31C727.02 59.31 728.23 63.93 729.15 65C729.15 65 735.75 65.14 737.77 68.13C737.77 68.13 730.06 65.46 729.63 66.24C729.63 66.24 732.82 71.83 735.93 73.81C732.979 72.1372 730.515 69.7247 728.78 66.81C728.205 68.8237 728.233 70.9619 728.86 72.96C728.86 72.96 725.72 70.77 728.02 65.44C728.02 65.44 725.72 60.98 725.85 60.17C725.85 60.17 722.85 65.1 722.65 68.91C722.65 68.91 720.83 64.56 725.53 58.83L724.4 53.73C724.4 53.73 720.07 60.04 719.65 63.43C719.65 63.43 718.49 58.7 724.22 52.43L723.84 47.32C723.84 47.32 719.7 52.47 718.42 56.14C718.42 56.14 718.28 51.52 723.79 45.85L723.94 42.4C723.94 42.4 720.94 46.21 720.23 47.4C719.52 48.59 719.1 48.42 719.1 48.42C720.001 45.5137 721.69 42.9142 723.98 40.91C723.98 40.91 724.7 33.82 724.28 33.73Z" fill="#5563F5"/>
<defs>
<linearGradient id="paint0_linear" x1="488.371" y1="592.78" x2="488.371" y2="96.54" gradientUnits="userSpaceOnUse">
<stop stop-color="#808080" stop-opacity="0.25"/>
<stop offset="0.54" stop-color="#808080" stop-opacity="0.12"/>
<stop offset="1" stop-color="#808080" stop-opacity="0.1"/>
</linearGradient>
</defs>
</svg>
